<svg xmlns="http://www.w3.org/2000/svg" xmlns:xlink="http://www.w3.org/1999/xlink" xml:space="preserve" width="128" height="128" viewBox="0 0 33.867 33.867"><defs><clipPath id="e" clipPathUnits="userSpaceOnUse"><use xlink:href="#a"/></clipPath><clipPath id="n" clipPathUnits="userSpaceOnUse"><use xlink:href="#b"/></clipPath><clipPath id="d" clipPathUnits="userSpaceOnUse"><use xlink:href="#c"/></clipPath></defs><g clip-path="url(#d)"><g clip-path="url(#e)"><path id="a" d="M0 0h33.867v33.867H0z" style="fill:#f3f2f2;fill-opacity:0;stroke-width:.429001;stroke-miterlimit:0"/><g transform="translate(5.027 5.344)scale(.70806)"><use xlink:href="#f" transform="translate(-3.517 40.587)"/><rect id="g" width="51.459" height="11.307" x="-50.647" y="3.87" ry="5.654" style="font-variation-settings:&quot;wght&quot;700;fill:#dedede;fill-opacity:1;stroke-width:8.18474;-inkscape-stroke:none" transform="rotate(-60)"/><rect id="i" width="51.459" height="11.307" x="-45.198" y="39.62" ry="5.654" style="font-variation-settings:&quot;wght&quot;700;fill:#ffa824;fill-opacity:1;stroke-width:8.18474;-inkscape-stroke:none" transform="rotate(-60)"/><rect id="j" width="51.459" height="11.307" x="-22.232" y="-17.417" ry="5.654" style="font-variation-settings:&quot;wght&quot;700;fill:#ff5018;fill-opacity:1;stroke-width:8.18474;-inkscape-stroke:none" transform="rotate(-60)"/><use xlink:href="#g" id="m" x="0" y="0" transform="translate(32.68 2.514)"/><use xlink:href="#h" id="k" x="0" y="0" transform="translate(45.25 35.51)"/><rect id="h" width="51.459" height="11.307" x="-23.162" y="-12.821" ry="5.654" style="font-variation-settings:&quot;wght&quot;700;fill:#ff730f;fill-opacity:1;stroke-width:8.18474;-inkscape-stroke:none" transform="rotate(-60)"/><use xlink:href="#i" id="f" x="0" y="0" transform="translate(-22.311 -48.55)"/><use xlink:href="#j" id="l" x="0" y="0" transform="translate(22.625 43.836)"/><use xlink:href="#k" transform="translate(-7.866 -29.746)"/><use xlink:href="#l" transform="translate(-19.644 -21.034)"/><use xlink:href="#m" transform="translate(-4.39 -30.871)"/><use xlink:href="#g" transform="translate(49.244 13.892)"/><use xlink:href="#h" transform="translate(16.96 3.945)"/><use xlink:href="#i" transform="translate(11.873 -37.074)"/><use xlink:href="#j" transform="translate(57.493 18.395)"/></g></g><g clip-path="url(#n)"><text xml:space="preserve" id="b" x="2.983" y="27.354" style="font-style:normal;font-variant:normal;font-weight:800;font-stretch:normal;font-size:28.355px;line-height:1.2;font-family:&quot;Noto Sans JP&quot;;-inkscape-font-specification:&quot;Noto Sans JP, Ultra-Bold&quot;;font-variant-ligatures:normal;font-variant-caps:normal;font-variant-numeric:normal;font-variant-east-asian:normal;text-decoration-color:#000;letter-spacing:0;fill:#fff;fill-opacity:1;stroke-width:.658603;stroke-miterlimit:0"><tspan x="2.983" y="27.354" style="font-style:normal;font-variant:normal;font-weight:800;font-stretch:normal;font-size:28.355px;font-family:&quot;Noto Sans JP&quot;;-inkscape-font-specification:&quot;Noto Sans JP, Ultra-Bold&quot;;font-variant-ligatures:normal;font-variant-caps:normal;font-variant-numeric:normal;font-variant-east-asian:normal;stroke-width:.658601">履</tspan></text><use xlink:href="#k" transform="rotate(180 28.625 23.283)scale(.70806)"/><use xlink:href="#l" transform="rotate(180 18.873 23.01)scale(.70806)"/><use xlink:href="#m" transform="rotate(180 21.765 18.312)scale(.70806)"/><use xlink:href="#k" transform="rotate(180 26.376 19.503)scale(.70806)"/><use xlink:href="#m" transform="rotate(180 19.548 18.721)scale(.70806)"/><use xlink:href="#l" style="fill:#000;fill-opacity:0" transform="rotate(180 13.697 19.791)scale(.74468)"/><use xlink:href="#k" transform="rotate(180 19.728 17.822)scale(.70806)"/><use xlink:href="#f" transform="rotate(180 6.28 2.953)scale(.70806)"/><use xlink:href="#m" transform="rotate(180 12.567 13.24)scale(.70806)"/></g><rect id="c" width="33.867" height="33.867" ry="5.565" style="font-variation-settings:&quot;wght&quot;600;fill:#000;fill-opacity:0;stroke-width:1.086;stroke-linecap:round;stroke-linejoin:round;stroke-miterlimit:0;paint-order:fill markers stroke"/></g></svg>